<?xml version="1.0" standalone="no"?>
<!DOCTYPE svg PUBLIC "-//W3C//DTD SVG 20010904//EN"
 "http://www.w3.org/TR/2001/REC-SVG-20010904/DTD/svg10.dtd">
<svg version="1.0" xmlns="http://www.w3.org/2000/svg"
 width="640.000000pt" height="640.000000pt" viewBox="0 0 640.000000 640.000000"
 preserveAspectRatio="xMidYMid meet">

<g transform="translate(0.000000,640.000000) scale(0.100000,-0.100000)"
fill="#000000" stroke="none">
<path d="M2919 5770 c-419 -88 -755 -422 -855 -850 -60 -258 -38 -506 68 -748
22 -51 45 -95 51 -99 7 -4 8 0 3 13 -4 10 -17 62 -28 114 -17 75 -22 132 -22
265 -1 186 6 215 49 215 43 0 198 40 295 76 161 60 247 112 389 232 29 25 51
38 51 30 0 -8 -20 -45 -45 -83 l-45 -70 55 59 c31 33 68 86 83 117 27 58 42
73 42 43 0 -22 39 -110 77 -174 37 -61 41 -62 17 -4 -20 47 -54 171 -54 199 0
11 17 -11 39 -51 48 -86 107 -142 198 -187 76 -38 142 -61 86 -30 -76 43 -181
148 -235 235 -31 49 -20 51 35 5 147 -125 429 -281 597 -331 47 -13 135 -32
195 -42 61 -9 114 -20 119 -24 12 -11 32 -118 46 -245 11 -99 9 -218 -6 -285
-10 -46 36 51 61 130 97 302 75 614 -65 892 -59 118 -111 191 -204 286 -163
168 -359 275 -576 316 -112 22 -310 20 -421 -4z m-151 -193 c-141 -85 -267
-182 -321 -246 -65 -77 -87 -106 -87 -112 0 -3 -8 -16 -19 -27 -56 -65 -35 28
28 121 86 128 220 232 344 268 84 24 99 23 55 -4z m800 -288 c121 -91 131 -94
217 -58 37 16 70 28 72 26 1 -2 -2 -18 -8 -35 -15 -43 -102 -87 -151 -77 -51
11 -98 39 -153 89 -100 91 -147 95 -236 19 -100 -85 -136 -89 -249 -23 -107
63 -130 59 -228 -34 -125 -119 -174 -133 -224 -61 -15 22 -30 54 -34 70 -5 27
-4 26 16 -10 24 -46 64 -85 86 -85 8 0 55 39 106 86 50 47 105 92 121 101 44
22 112 13 171 -25 88 -57 125 -53 201 17 64 60 85 70 145 70 53 1 58 -2 148
-70z m-1292 -234 c3 -8 2 -27 -3 -42 -14 -40 -57 -40 -61 0 -2 16 2 35 9 43
15 18 48 18 55 -1z"/>
<path d="M3600 4676 c-92 -25 -158 -70 -147 -99 4 -11 19 -9 79 11 66 22 83
24 178 19 58 -4 123 -9 145 -13 l40 -6 -41 40 c-62 60 -150 77 -254 48z"/>
<path d="M2502 4645 c-77 -18 -169 -98 -99 -86 47 8 294 3 330 -7 20 -6 37 -6
37 -2 0 18 -107 90 -141 96 -19 3 -43 7 -54 9 -11 1 -44 -3 -73 -10z"/>
<path d="M3482 4426 c-50 -54 -66 -109 -58 -195 11 -120 70 -200 153 -208 42
-5 53 -1 81 22 51 43 65 86 66 200 1 88 -2 105 -23 141 -28 50 -84 84 -139 84
-34 0 -45 -6 -80 -44z"/>
<path d="M2567 4417 c-49 -45 -69 -98 -69 -173 1 -144 69 -249 162 -249 50 0
88 29 119 90 21 40 25 62 26 139 0 81 -3 96 -26 136 -40 67 -62 83 -122 88
-50 4 -56 2 -90 -31z"/>
<path d="M4195 4080 c-11 -5 -36 -9 -55 -10 -32 -1 -39 -7 -87 -78 -99 -147
-237 -274 -390 -358 -37 -21 -69 -38 -71 -39 -1 -1 0 -10 4 -19 4 -11 19 -16
49 -16 100 0 237 -72 336 -176 73 -77 209 -271 209 -298 0 -4 7 -17 16 -31 15
-23 16 -23 34 -5 10 10 34 24 54 31 20 7 36 18 36 24 0 5 -13 53 -30 105 -65
205 -75 281 -75 550 0 135 4 264 8 288 8 45 2 49 -38 32z"/>
<path d="M2150 3979 c0 -6 12 -56 28 -112 23 -87 27 -122 27 -232 0 -148 -13
-203 -92 -385 -25 -58 -49 -120 -54 -138 -7 -34 5 -97 21 -107 4 -3 25 23 46
57 88 147 251 316 375 389 83 50 187 89 234 89 57 0 47 15 -33 49 -154 66
-334 207 -438 343 -40 51 -49 58 -80 58 -19 0 -34 -5 -34 -11z m140 -294 c0
-8 -4 -15 -10 -15 -5 0 -10 7 -10 15 0 8 5 15 10 15 6 0 10 -7 10 -15z m-13
-172 c-3 -49 -13 -106 -22 -128 -10 -22 -21 -51 -26 -64 -5 -13 -12 -22 -14
-19 -3 2 7 40 20 83 14 43 28 109 32 147 9 98 17 84 10 -19z"/>
<path d="M4977 3689 c7 -7 15 -10 18 -7 3 3 -2 9 -12 12 -14 6 -15 5 -6 -5z"/>
<path d="M4948 3672 c-3 -9 -1 -26 3 -37 6 -15 8 -11 8 18 1 40 -4 48 -11 19z"/>
<path d="M4902 3637 c-12 -13 -19 -27 -15 -32 5 -4 3 -5 -4 -1 -8 4 -19 -9
-33 -39 -27 -59 -36 -105 -21 -105 7 0 11 -6 9 -12 -7 -40 30 -74 40 -37 3 12
2 12 -6 0 -8 -11 -12 -9 -22 9 -10 19 -10 22 2 18 8 -3 22 0 33 8 10 8 16 14
12 14 -4 0 0 16 8 36 12 30 13 40 3 52 -9 11 -9 14 -1 9 7 -5 14 2 19 15 4 13
10 25 14 28 4 3 2 17 -5 33 l-11 27 -22 -23z m23 -35 c-8 -8 -25 10 -19 20 4
6 9 5 15 -3 4 -7 6 -15 4 -17z m-49 -79 c-3 -4 -6 -1 -6 7 0 10 -3 10 -17 -1
-15 -13 -15 -12 -2 8 11 19 15 20 22 7 5 -9 6 -18 3 -21z"/>
<path d="M5940 3425 c0 -9 11 -32 25 -53 94 -142 116 -368 69 -692 -47 -325
-181 -669 -419 -1075 -47 -80 -85 -147 -85 -150 0 -3 8 -2 18 3 9 5 23 7 30 5
6 -3 12 3 12 13 0 9 3 14 7 10 4 -4 15 14 25 39 10 26 47 92 82 148 187 300
289 567 356 933 50 273 45 555 -11 666 -5 10 -9 26 -9 36 0 10 -7 27 -15 38
-8 10 -15 26 -15 34 0 8 -16 25 -35 38 -28 18 -35 19 -35 7z"/>
<path d="M4265 2959 c-10 -15 3 -25 16 -12 7 7 7 13 1 17 -6 3 -14 1 -17 -5z"/>
<path d="M2525 2800 c-32 -39 -56 -72 -54 -74 2 -2 20 -8 39 -14 l36 -9 22 80
c13 44 21 82 18 84 -2 2 -30 -28 -61 -67z"/>
<path d="M2107 2378 c-5 -16 22 -77 138 -313 51 -104 120 -246 153 -315 59
-122 87 -168 96 -159 11 11 -20 92 -133 339 -183 402 -213 460 -232 460 -10 0
-19 -6 -22 -12z"/>
<path d="M1872 2350 c0 -14 2 -19 5 -12 2 6 2 18 0 25 -3 6 -5 1 -5 -13z"/>
<path d="M1850 2174 c-15 -38 -13 -107 3 -101 8 2 12 25 12 65 0 34 -1 62 -3
62 -1 0 -7 -12 -12 -26z"/>
<path d="M1848 2059 c-14 -8 -18 -23 -17 -72 0 -34 3 -55 6 -47 3 8 15 27 25
43 11 15 15 27 9 27 -6 0 -11 5 -11 10 0 6 8 10 18 10 13 0 14 2 3 9 -7 5 -10
14 -7 20 9 14 -3 14 -26 0z"/>
<path d="M777 1623 c-27 -26 18 -86 59 -78 10 1 54 6 96 10 43 4 75 11 73 15
-3 5 1 11 7 13 8 3 6 6 -4 6 -10 1 -18 6 -18 11 0 6 8 10 18 10 14 0 15 2 2
10 -17 11 -223 14 -233 3z"/>
<path d="M800 1364 c-52 -21 -41 -74 15 -74 19 0 35 -2 35 -5 0 -2 -10 -23
-21 -45 -28 -53 -35 -118 -19 -174 12 -44 33 -65 45 -46 4 6 -1 10 -9 10 -18
0 -22 50 -6 66 6 6 13 35 16 65 8 82 32 126 72 134 29 5 34 10 31 31 0 4 5 10
12 15 8 4 11 10 9 13 -8 7 -164 16 -180 10z"/>
<path d="M4956 1352 c-21 -35 49 -90 98 -78 24 6 27 10 21 34 -4 15 -11 33
-17 39 -12 14 -94 18 -102 5z"/>
<path d="M5207 1353 c-21 -20 11 -73 44 -73 36 0 37 22 4 51 -35 31 -38 33
-48 22z"/>
</g>
</svg>
